<?xml version="1.0" encoding="UTF-8" standalone="no"?>
<!DOCTYPE svg PUBLIC "-//W3C//DTD SVG 1.1//EN" "http://www.w3.org/Graphics/SVG/1.1/DTD/svg11.dtd">
<svg width="100%" height="100%" viewBox="0 0 389 384" version="1.1" xmlns="http://www.w3.org/2000/svg" xmlns:xlink="http://www.w3.org/1999/xlink" xml:space="preserve" xmlns:serif="http://www.serif.com/" style="fill-rule:evenodd;clip-rule:evenodd;stroke-linejoin:round;stroke-miterlimit:2;">
    <g transform="matrix(1,0,0,1,-384.403,-1061.1)">
        <g transform="matrix(0.865329,0,0,0.865329,104.102,194.599)">
            <path d="M499.168,1001.35C503.392,1014.18 507.934,1033.79 499.78,1041.95C487.174,1054.55 420.103,1084.89 437.356,1183.85C445.271,1229.25 478.023,1315.6 492.529,1314.93C497.494,1314.7 499.592,1311.74 499.305,1306.59C498.143,1285.74 485.557,1189.84 485.557,1189.84C485.354,1186.44 485.871,1183.02 487.119,1179.85C488.286,1176.87 490.068,1174.15 492.319,1171.88C493.909,1170.28 495.729,1168.91 497.71,1167.83C502.48,1165.23 508.123,1164.37 513.454,1165.42C515.368,1165.8 517.232,1166.43 518.991,1167.27C521.19,1168.32 523.221,1169.72 524.991,1171.4C526.972,1173.28 528.622,1175.5 529.842,1177.94C531.239,1180.74 532.043,1183.79 532.249,1186.91C532.249,1186.91 533.799,1283.49 538.006,1304.86C539.116,1310.5 544.271,1314.2 548.477,1314.27C552.612,1314.27 557.724,1310.98 558.929,1304.86C563.135,1283.49 564.685,1186.91 564.685,1186.91C564.891,1183.79 565.696,1180.74 567.093,1177.94C568.312,1175.5 569.963,1173.28 571.944,1171.4C573.714,1169.72 575.744,1168.32 577.943,1167.27C579.702,1166.43 581.567,1165.8 583.481,1165.42C588.811,1164.37 594.454,1165.23 599.225,1167.83C601.205,1168.91 603.026,1170.28 604.616,1171.88C606.866,1174.15 608.648,1176.87 609.816,1179.85C611.064,1183.02 611.581,1186.44 611.377,1189.84C611.377,1189.84 598.792,1285.74 597.63,1306.59C597.343,1311.74 599.441,1314.7 604.405,1314.93C618.911,1315.6 651.664,1229.25 659.578,1183.85C676.831,1084.89 609.761,1054.55 597.155,1041.95C589,1033.79 593.542,1014.18 597.766,1001.35C698.006,1023.83 773.01,1113.45 773.01,1220.45C773.01,1344.38 672.396,1445 548.467,1445C424.539,1445 323.924,1344.38 323.924,1220.45C323.924,1113.45 398.928,1023.83 499.168,1001.35ZM451.954,1350.7C480.018,1378.77 516.172,1389.05 548.313,1389.45C580.542,1389.85 615.212,1380.47 644.98,1350.7C649.837,1345.84 649.837,1337.96 644.98,1333.1C640.123,1328.24 632.237,1328.24 627.38,1333.1C603.138,1357.34 574.867,1364.89 548.621,1364.56C522.287,1364.24 492.549,1356.1 469.555,1333.1C464.698,1328.24 456.811,1328.24 451.954,1333.1C447.097,1337.96 447.097,1345.84 451.954,1350.7Z" style="fill:white;"/>
        </g>
    </g>
</svg>
